<svg width="25" height="25" viewBox="0 0 25 25" fill="none" xmlns="http://www.w3.org/2000/svg">
<path fill-rule="evenodd" clip-rule="evenodd" d="M20.2505 4.74126C19.2393 3.72958 18.038 2.92789 16.7157 2.38235C15.3934 1.83681 13.9763 1.5582 12.5459 1.56255C6.54297 1.56255 1.65625 6.42486 1.65381 12.4024C1.65115 14.3058 2.15288 16.1759 3.10791 17.8223L1.5625 23.4376L7.33643 21.9302C8.93468 22.7961 10.7238 23.2492 12.5415 23.2486H12.5459C18.5483 23.2486 23.4346 18.3858 23.4375 12.4087C23.4411 10.9832 23.1612 9.57124 22.6141 8.2549C22.067 6.93857 21.2635 5.74419 20.2505 4.74126ZM12.5459 21.419H12.542C10.9216 21.4195 9.33062 20.9858 7.93457 20.1631L7.604 19.9678L4.17773 20.8624L5.09229 17.5377L4.87695 17.1959C3.97089 15.7614 3.49084 14.0991 3.49268 12.4024C3.49268 7.43511 7.55566 3.39361 12.5493 3.39361C14.9448 3.38933 17.2439 4.33674 18.941 6.02745C20.638 7.71817 21.594 10.0137 21.5986 12.4092C21.5967 17.377 17.5356 21.419 12.5459 21.419ZM17.5112 14.6714C17.2393 14.5357 15.8999 13.8804 15.6519 13.7901C15.4038 13.6998 15.2207 13.6544 15.0396 13.9258C14.8584 14.1973 14.3364 14.8047 14.1777 14.9878C14.019 15.171 13.8604 15.191 13.5884 15.0552C13.3164 14.9195 12.439 14.6338 11.3994 13.711C10.5903 12.9927 10.0444 12.106 9.88574 11.835C9.72705 11.564 9.86865 11.417 10.0049 11.2823C10.1274 11.1607 10.2769 10.9659 10.4131 10.8077C10.5493 10.6495 10.5947 10.5362 10.6851 10.3555C10.7754 10.1749 10.7305 10.0167 10.6626 9.8814C10.5947 9.74615 10.0503 8.41265 9.82373 7.87017C9.60254 7.34185 9.37842 7.41363 9.21143 7.40533C9.05273 7.39751 8.86963 7.39556 8.68945 7.39556C8.55171 7.39915 8.41619 7.43109 8.29135 7.48939C8.16651 7.5477 8.05503 7.63111 7.96387 7.73443C7.71436 8.00591 7.01123 8.66216 7.01123 9.99419C7.01123 11.3262 7.98779 12.6153 8.12256 12.796C8.25732 12.9766 10.0415 15.7125 12.7715 16.8858C13.2784 17.1029 13.7964 17.2933 14.3232 17.4561C14.9751 17.6622 15.5684 17.6334 16.0371 17.5635C16.5601 17.4859 17.6484 16.9083 17.8745 16.2754C18.1006 15.6426 18.1011 15.1006 18.0332 14.9878C17.9653 14.8751 17.7837 14.8067 17.5112 14.6714Z" fill="#454545"/>
</svg>
