<svg width="127" height="79" viewBox="0 0 127 79" fill="none" xmlns="http://www.w3.org/2000/svg">
<path d="M6.32529 60.5L34.7727 8.04876L63.2201 60.5H6.32529Z" fill="#DE5858" stroke="#E9E9E9"/>
<path d="M68.7129 32.5352C68.7129 32.3594 68.7227 32.1836 68.7422 32.0078C68.7812 31.8125 68.8984 31.6855 69.0938 31.627C69.1719 31.8027 69.2598 31.998 69.3574 32.2129C69.4746 32.4082 69.6113 32.5547 69.7676 32.6523H70.002C70.1387 32.6523 70.2656 32.6621 70.3828 32.6816C70.5 32.6816 70.6172 32.6816 70.7344 32.6816H70.9688C71.6328 32.6816 72.2969 32.5742 72.9609 32.3594C73.6445 32.125 74.25 31.793 74.7773 31.3633C75.3242 30.9336 75.7637 30.4258 76.0957 29.8398C76.4277 29.2539 76.5938 28.5898 76.5938 27.8477C76.5938 27.1055 76.3984 26.4609 76.0078 25.9141C75.6367 25.3477 75.1484 24.8887 74.543 24.5371C73.957 24.166 73.3125 23.8926 72.6094 23.7168C71.9062 23.541 71.2422 23.4531 70.6172 23.4531C70.5391 23.4531 70.3438 23.4629 70.0312 23.4824C69.7383 23.502 69.416 23.541 69.0645 23.5996C68.7324 23.6387 68.4297 23.707 68.1562 23.8047C67.8828 23.8828 67.7461 23.9902 67.7461 24.127V29.9277C67.7461 30.0645 67.6777 30.1621 67.541 30.2207C67.4238 30.2598 67.3262 30.2793 67.248 30.2793C67.1113 30.2793 66.9844 30.1523 66.8672 29.8984C66.75 29.625 66.6523 29.293 66.5742 28.9023C66.4961 28.4922 66.4277 28.043 66.3691 27.5547C66.3105 27.0664 66.252 26.5977 66.1934 26.1484C66.1543 25.6797 66.125 25.2695 66.1055 24.918C66.0859 24.5664 66.0664 24.3027 66.0469 24.127V21.1094C66.0273 20.875 65.9883 20.4746 65.9297 19.9082C65.8711 19.3223 65.8027 18.707 65.7246 18.0625C65.666 17.3984 65.5977 16.7832 65.5195 16.2168C65.4609 15.6309 65.4121 15.2207 65.373 14.9863C65.4316 14.6348 65.373 14.4297 65.1973 14.3711C65.041 14.3125 64.8457 14.293 64.6113 14.3125C64.377 14.3125 64.1523 14.3027 63.9375 14.2832C63.7422 14.2441 63.6445 14.0781 63.6445 13.7852V13.6973C63.6445 13.6777 63.6543 13.6484 63.6738 13.6094L65.373 11.9102H65.5488C65.6855 11.9102 65.8418 11.9102 66.0176 11.9102C66.1934 11.8906 66.3691 11.8809 66.5449 11.8809H67.0137C67.5996 11.8809 68.293 11.9004 69.0938 11.9395C69.8945 11.9785 70.6465 12.1055 71.3496 12.3203C72.0527 12.5156 72.6484 12.8477 73.1367 13.3164C73.6445 13.7852 73.8984 14.4492 73.8984 15.3086C73.8984 15.9727 73.752 16.6172 73.459 17.2422C73.1855 17.8672 72.8438 18.4727 72.4336 19.0586C72.0234 19.625 71.5742 20.1719 71.0859 20.6992C70.6172 21.2266 70.1777 21.6953 69.7676 22.1055C70.666 22.2031 71.584 22.3496 72.5215 22.5449C73.459 22.7207 74.3086 23.0332 75.0703 23.4824C75.832 23.9121 76.4473 24.4785 76.916 25.1816C77.4043 25.8848 77.6484 26.793 77.6484 27.9062C77.6484 28.7852 77.4238 29.6055 76.9746 30.3672C76.5449 31.1094 75.9883 31.7539 75.3047 32.3008C74.6211 32.8281 73.8496 33.248 72.9902 33.5605C72.1504 33.873 71.3105 34.0293 70.4707 34.0293C70.2559 34.0293 70.041 33.9902 69.8262 33.9121C69.6309 33.834 69.4453 33.7266 69.2695 33.5898C69.1133 33.4336 68.9766 33.2676 68.8594 33.0918C68.7617 32.916 68.7129 32.7305 68.7129 32.5352ZM67.3945 22.1055C67.9805 21.9102 68.5859 21.5684 69.2109 21.0801C69.8555 20.5918 70.4512 20.0352 70.998 19.4102C71.5449 18.7656 71.9941 18.082 72.3457 17.3594C72.6973 16.6367 72.873 15.9531 72.873 15.3086C72.873 14.7617 72.6777 14.3516 72.2871 14.0781C71.916 13.7852 71.4766 13.5801 70.9688 13.4629C70.4805 13.3457 69.9727 13.2871 69.4453 13.2871C68.918 13.2676 68.5078 13.2578 68.2148 13.2578H67.8047C67.6484 13.2578 67.4824 13.2676 67.3066 13.2871C67.1504 13.2871 67.0137 13.2969 66.8965 13.3164C66.7988 13.3164 66.7402 13.3164 66.7207 13.3164L66.3984 13.9609L67.3945 22.1055ZM80.3438 33.3262C80.3242 32.8184 80.2754 32.0371 80.1973 30.9824C80.1191 29.9082 80.0312 28.707 79.9336 27.3789C79.8555 26.0312 79.7676 24.625 79.6699 23.1602C79.5918 21.6758 79.5039 20.2598 79.4062 18.9121C79.3281 17.5645 79.2402 16.3633 79.1426 15.3086C79.0645 14.2344 79.0156 13.4434 78.9961 12.9355V12.5547C78.9961 12.1055 79.2207 11.8809 79.6699 11.8809C79.709 11.8809 79.7676 11.8906 79.8457 11.9102C79.9238 11.9102 79.9824 11.9102 80.0215 11.9102C80.1387 13.6094 80.2461 15.2402 80.3438 16.8027C80.4414 18.3652 80.5391 19.918 80.6367 21.4609C80.7344 23.0039 80.8418 24.5566 80.959 26.1191C81.0762 27.6621 81.2129 29.2734 81.3691 30.9531C81.584 31.168 81.7012 31.4219 81.7207 31.7148C81.7402 31.9883 81.75 32.2715 81.75 32.5645C81.75 32.7012 81.7402 32.8574 81.7207 33.0332C81.7207 33.1895 81.6914 33.3457 81.6328 33.502C81.5742 33.6387 81.4766 33.7656 81.3398 33.8828C81.2227 33.9805 81.0664 34.0293 80.8711 34.0293C80.6953 34.0293 80.5684 33.9609 80.4902 33.8242C80.4316 33.6875 80.3828 33.5215 80.3438 33.3262ZM82.834 29.5762C82.834 29.1855 82.834 28.668 82.834 28.0234C82.8535 27.3594 82.9023 26.6562 82.9805 25.9141C83.0586 25.1523 83.1758 24.3809 83.332 23.5996C83.4883 22.8184 83.7129 22.1152 84.0059 21.4902C84.2988 20.8652 84.6699 20.3574 85.1191 19.9668C85.5684 19.5762 86.125 19.3809 86.7891 19.3809C87.707 19.3809 88.4395 19.6348 88.9863 20.1426C89.5527 20.6504 89.9824 21.2852 90.2754 22.0469C90.5879 22.7891 90.793 23.5898 90.8906 24.4492C91.0078 25.2891 91.0664 26.0508 91.0664 26.7344C91.0664 27.4766 90.959 28.2773 90.7441 29.1367C90.5293 29.9961 90.1973 30.7871 89.748 31.5098C89.2988 32.2324 88.7324 32.8379 88.0488 33.3262C87.3848 33.7949 86.584 34.0293 85.6465 34.0293C85.041 34.0293 84.5527 33.8926 84.1816 33.6191C83.8105 33.3262 83.5273 32.9648 83.332 32.5352C83.1562 32.1055 83.0293 31.627 82.9512 31.0996C82.873 30.5723 82.834 30.0645 82.834 29.5762ZM83.8301 29.2246C83.8301 29.5957 83.8398 29.9863 83.8594 30.3965C83.8789 30.7871 83.9375 31.1582 84.0352 31.5098C84.1328 31.8613 84.3086 32.1445 84.5625 32.3594C84.8164 32.5742 85.1875 32.6816 85.6758 32.6816C86.5352 32.6816 87.2383 32.4863 87.7852 32.0957C88.3516 31.7051 88.8008 31.207 89.1328 30.6016C89.4648 29.9766 89.6895 29.293 89.8066 28.5508C89.9434 27.8086 90.0117 27.0957 90.0117 26.4121C90.0117 25.9824 89.9727 25.4258 89.8945 24.7422C89.8359 24.0586 89.6992 23.3945 89.4844 22.75C89.2695 22.1055 88.957 21.5586 88.5469 21.1094C88.1367 20.6406 87.5996 20.4062 86.9355 20.4062C86.4668 20.4062 86.0566 20.5918 85.7051 20.9629C85.373 21.334 85.0898 21.8125 84.8555 22.3984C84.6211 22.9844 84.4355 23.6289 84.2988 24.332C84.1816 25.0352 84.084 25.709 84.0059 26.3535C83.9277 26.998 83.8789 27.584 83.8594 28.1113C83.8398 28.6387 83.8301 29.0098 83.8301 29.2246ZM95.4902 45.2207C95.4902 45.0449 95.5 44.8594 95.5195 44.6641C95.5586 44.4883 95.6172 44.3711 95.6953 44.3125C95.793 44.2734 95.9004 44.332 96.0176 44.4883C96.1543 44.6445 96.3203 44.9668 96.5156 45.4551C97.1406 45.4551 97.707 45.3184 98.2148 45.0449C98.7422 44.791 99.2109 44.4395 99.6211 43.9902C100.031 43.541 100.373 43.0234 100.646 42.4375C100.939 41.8516 101.184 41.2461 101.379 40.6211C101.574 39.9961 101.711 39.3711 101.789 38.7461C101.887 38.1406 101.936 37.5742 101.936 37.0469C101.936 35.0156 101.74 32.9453 101.35 30.8359C100.959 28.707 100.363 26.7051 99.5625 24.8301C99.1719 25.6895 98.8301 26.5781 98.5371 27.4961C98.2441 28.4141 97.8926 29.3027 97.4824 30.1621C97.0723 31.002 96.5645 31.7637 95.959 32.4473C95.373 33.1113 94.582 33.6387 93.5859 34.0293C93.2344 34.0293 92.9512 33.9414 92.7363 33.7656C92.541 33.5703 92.3848 33.3359 92.2676 33.0625C92.1699 32.7891 92.1113 32.5059 92.0918 32.2129C92.0723 31.9004 92.0625 31.6074 92.0625 31.334C92.0625 30.9043 92.1113 30.3379 92.209 29.6348C92.3262 28.9121 92.502 28.1406 92.7363 27.3203C92.9707 26.5 93.2441 25.6797 93.5566 24.8594C93.8887 24.0391 94.2695 23.2969 94.6992 22.6328C95.1289 21.9688 95.6074 21.4316 96.1348 21.0215C96.6621 20.6113 97.2383 20.4062 97.8633 20.4062C98.0586 20.4062 98.2539 20.4551 98.4492 20.5527C98.6445 20.6504 98.8398 20.7578 99.0352 20.875L99.6211 21.2266C99.8164 21.3242 100.021 21.4023 100.236 21.4609C100.295 21.7148 100.393 22.1348 100.529 22.7207C100.666 23.3066 100.812 23.9707 100.969 24.7129C101.125 25.4355 101.281 26.207 101.438 27.0273C101.613 27.8477 101.779 28.6289 101.936 29.3711C102.092 30.0938 102.229 30.7578 102.346 31.3633C102.482 31.9492 102.57 32.3789 102.609 32.6523C102.629 32.7891 102.658 33.0234 102.697 33.3555C102.756 33.668 102.795 34 102.814 34.3516C102.854 34.7227 102.883 35.0645 102.902 35.377C102.941 35.6895 102.961 35.9043 102.961 36.0215C102.961 36.5879 102.922 37.252 102.844 38.0137C102.766 38.7754 102.629 39.5566 102.434 40.3574C102.238 41.1582 101.984 41.9492 101.672 42.7305C101.359 43.5117 100.969 44.2148 100.5 44.8398C100.031 45.4648 99.4746 45.9629 98.8301 46.334C98.2051 46.7246 97.4824 46.9199 96.6621 46.9199C96.1934 46.9199 95.8809 46.7441 95.7246 46.3926C95.5684 46.041 95.4902 45.6504 95.4902 45.2207ZM93.0586 31.0703V31.5684C93.0586 31.7441 93.0781 31.9199 93.1172 32.0957C93.1562 32.252 93.2246 32.3984 93.3223 32.5352C93.4199 32.6523 93.5762 32.7109 93.791 32.7109C94.1426 32.6914 94.4941 32.4961 94.8457 32.125C95.2168 31.7539 95.5488 31.3242 95.8418 30.8359C96.1543 30.3477 96.4277 29.8594 96.6621 29.3711C96.916 28.8633 97.0918 28.4824 97.1895 28.2285C97.2676 28.0527 97.3848 27.7207 97.541 27.2324C97.7168 26.7441 97.8926 26.2363 98.0684 25.709C98.2441 25.1621 98.4102 24.6445 98.5664 24.1562C98.7227 23.6484 98.8301 23.2969 98.8887 23.1016V22.9551C98.8887 22.7988 98.8203 22.6621 98.6836 22.5449C98.5664 22.4277 98.4199 22.3398 98.2441 22.2812C98.0879 22.2227 97.9219 22.1738 97.7461 22.1348C97.5703 22.0957 97.4238 22.0762 97.3066 22.0762C96.877 22.0762 96.4668 22.2812 96.0762 22.6914C95.7051 23.1016 95.3633 23.6191 95.0508 24.2441C94.7383 24.8691 94.4551 25.5527 94.2012 26.2949C93.9668 27.0176 93.7617 27.7207 93.5859 28.4043C93.4102 29.0684 93.2734 29.6543 93.1758 30.1621C93.0977 30.6504 93.0586 30.9531 93.0586 31.0703Z" fill="black"/>
<path d="M79.7031 60.377C79.5273 60.377 79.4004 60.3281 79.3223 60.2305C79.2441 60.1328 79.1855 60.0059 79.1465 59.8496C79.127 59.7129 79.127 59.5566 79.1465 59.3809C79.166 59.2246 79.1758 59.0977 79.1758 59L84.3027 37.2617C84.3418 37.0859 84.4199 36.9004 84.5371 36.7051C84.6738 36.4902 84.8105 36.334 84.9473 36.2363C85.0059 36.4121 85.0938 36.5977 85.2109 36.793C85.3281 36.9688 85.4746 37.125 85.6504 37.2617L93.7949 55.9238C93.8145 55.9434 93.8242 55.9922 93.8242 56.0703V56.2461C93.8242 56.4414 93.7852 56.6172 93.707 56.7734C93.6289 56.9102 93.4922 56.9785 93.2969 56.9785C93.043 56.9785 92.8672 56.8613 92.7695 56.627L90.7188 51.8809C90.7188 51.8613 90.5918 51.8418 90.3379 51.8223C90.1035 51.7832 89.918 51.7637 89.7812 51.7637C89.7031 51.7637 89.5859 51.7734 89.4297 51.793C89.293 51.793 89.1465 51.8027 88.9902 51.8223C88.834 51.8223 88.6875 51.832 88.5508 51.8516C88.4336 51.8711 88.3652 51.8809 88.3457 51.8809C87.8965 51.959 87.3105 52.0664 86.5879 52.2031C85.8848 52.3203 85.1914 52.457 84.5078 52.6133C83.8242 52.75 83.2285 52.877 82.7207 52.9941C82.2324 53.1113 81.9688 53.1895 81.9297 53.2285L80.2012 59.9961C80.1816 60.1328 80.123 60.2305 80.0254 60.2891C79.9277 60.3477 79.8203 60.377 79.7031 60.377ZM84.9473 39.2832C84.9277 39.3418 84.8984 39.4199 84.8594 39.5176C84.8398 39.5957 84.8105 39.6934 84.7715 39.8105C84.7324 39.9082 84.7031 40.0059 84.6836 40.1035C84.6641 40.2012 84.6445 40.2695 84.625 40.3086C84.4883 40.8164 84.3418 41.4316 84.1855 42.1543L83.1602 46.7539C82.9844 47.5547 82.8281 48.2871 82.6914 48.9512C82.5742 49.6152 82.4668 50.1914 82.3691 50.6797C82.291 51.168 82.252 51.4805 82.252 51.6172C82.5254 51.6172 82.9062 51.5977 83.3945 51.5586C83.8828 51.5195 84.4004 51.4609 84.9473 51.3828C85.5137 51.2852 86.0801 51.1875 86.6465 51.0898C87.2324 50.9922 87.75 50.875 88.1992 50.7383C88.668 50.6016 89.0488 50.4648 89.3418 50.3281C89.6348 50.1719 89.7812 50.0156 89.7812 49.8594C89.7812 49.8203 89.7715 49.7617 89.752 49.6836C89.752 49.5859 89.7422 49.5176 89.7227 49.4785L84.9473 39.2832ZM95.377 43.209C95.5332 43.209 95.709 43.2285 95.9043 43.2676C96.0996 43.3066 96.2754 43.3848 96.4316 43.502C96.5879 43.5996 96.7051 43.7363 96.7832 43.9121C96.8809 44.0879 96.8906 44.3125 96.8125 44.5859C96.8906 44.5664 97.0078 44.5469 97.1641 44.5273C97.3203 44.4883 97.4863 44.4492 97.6621 44.4102C97.8574 44.3711 98.0332 44.3418 98.1895 44.3223C98.3457 44.2832 98.4531 44.2539 98.5117 44.2344H98.6582C99.4785 44.2344 100.309 44.3711 101.148 44.6445C101.988 44.8984 102.74 45.2695 103.404 45.7578C104.068 46.2461 104.615 46.8418 105.045 47.5449C105.494 48.248 105.719 49.0391 105.719 49.918C105.719 50.8945 105.494 51.793 105.045 52.6133C104.596 53.4141 104.01 54.1074 103.287 54.6934C102.584 55.2793 101.783 55.7383 100.885 56.0703C100.006 56.4023 99.127 56.5684 98.248 56.5684C98.248 57.1348 98.2969 57.7012 98.3945 58.2676C98.5117 58.8145 98.6191 59.3516 98.7168 59.8789C98.834 60.4258 98.9414 60.9629 99.0391 61.4902C99.1562 62.0371 99.2148 62.5742 99.2148 63.1016C99.2148 63.2578 99.1562 63.3848 99.0391 63.4824C98.9414 63.5801 98.8145 63.6289 98.6582 63.6289C98.4824 63.6289 98.3359 63.5508 98.2188 63.3945C98.1211 63.2383 98.043 63.0625 97.9844 62.8672C97.9453 62.6719 97.9062 62.4766 97.8672 62.2812C97.8477 62.1055 97.8379 61.9785 97.8379 61.9004C97.7988 61.627 97.7305 61.1875 97.6328 60.582C97.5547 59.9961 97.457 59.3418 97.3398 58.6191C97.2227 57.877 97.0957 57.1055 96.959 56.3047C96.8418 55.4844 96.7246 54.7031 96.6074 53.9609C96.5098 53.2188 96.4121 52.5645 96.3145 51.998C96.2363 51.4121 96.1777 50.9824 96.1387 50.709L95.377 43.209ZM96.7832 47.1348V47.4277C96.7832 47.5254 96.7832 47.6426 96.7832 47.7793C96.8027 47.8965 96.8125 48.0039 96.8125 48.1016V48.3066C96.8516 48.6387 96.9004 49.0391 96.959 49.5078C97.0176 49.9766 97.0859 50.4746 97.1641 51.002C97.2422 51.5098 97.3203 52.0273 97.3984 52.5547C97.4766 53.082 97.5449 53.5605 97.6035 53.9902C97.6621 54.4004 97.7109 54.7422 97.75 55.0156C97.7891 55.2891 97.8184 55.4355 97.8379 55.4551C98.6191 55.6309 99.4102 55.5918 100.211 55.3379C101.012 55.0645 101.734 54.6445 102.379 54.0781C103.023 53.4922 103.561 52.8184 103.99 52.0566C104.42 51.2949 104.645 50.5137 104.664 49.7129C104.664 48.9902 104.488 48.375 104.137 47.8672C103.805 47.3398 103.375 46.9102 102.848 46.5781C102.32 46.2266 101.725 45.9727 101.061 45.8164C100.416 45.6406 99.7715 45.5527 99.127 45.5527C98.8145 45.5527 98.5117 45.5723 98.2188 45.6113C97.9453 45.6504 97.7012 45.7188 97.4863 45.8164C97.2715 45.9141 97.0957 46.0703 96.959 46.2852C96.8418 46.5 96.7832 46.7832 96.7832 47.1348ZM107.096 43.209C107.252 43.209 107.428 43.2285 107.623 43.2676C107.818 43.3066 107.994 43.3848 108.15 43.502C108.307 43.5996 108.424 43.7363 108.502 43.9121C108.6 44.0879 108.609 44.3125 108.531 44.5859C108.609 44.5664 108.727 44.5469 108.883 44.5273C109.039 44.4883 109.205 44.4492 109.381 44.4102C109.576 44.3711 109.752 44.3418 109.908 44.3223C110.064 44.2832 110.172 44.2539 110.23 44.2344H110.377C111.197 44.2344 112.027 44.3711 112.867 44.6445C113.707 44.8984 114.459 45.2695 115.123 45.7578C115.787 46.2461 116.334 46.8418 116.764 47.5449C117.213 48.248 117.438 49.0391 117.438 49.918C117.438 50.8945 117.213 51.793 116.764 52.6133C116.314 53.4141 115.729 54.1074 115.006 54.6934C114.303 55.2793 113.502 55.7383 112.604 56.0703C111.725 56.4023 110.846 56.5684 109.967 56.5684C109.967 57.1348 110.016 57.7012 110.113 58.2676C110.23 58.8145 110.338 59.3516 110.436 59.8789C110.553 60.4258 110.66 60.9629 110.758 61.4902C110.875 62.0371 110.934 62.5742 110.934 63.1016C110.934 63.2578 110.875 63.3848 110.758 63.4824C110.66 63.5801 110.533 63.6289 110.377 63.6289C110.201 63.6289 110.055 63.5508 109.938 63.3945C109.84 63.2383 109.762 63.0625 109.703 62.8672C109.664 62.6719 109.625 62.4766 109.586 62.2812C109.566 62.1055 109.557 61.9785 109.557 61.9004C109.518 61.627 109.449 61.1875 109.352 60.582C109.273 59.9961 109.176 59.3418 109.059 58.6191C108.941 57.877 108.814 57.1055 108.678 56.3047C108.561 55.4844 108.443 54.7031 108.326 53.9609C108.229 53.2188 108.131 52.5645 108.033 51.998C107.955 51.4121 107.896 50.9824 107.857 50.709L107.096 43.209ZM108.502 47.1348V47.4277C108.502 47.5254 108.502 47.6426 108.502 47.7793C108.521 47.8965 108.531 48.0039 108.531 48.1016V48.3066C108.57 48.6387 108.619 49.0391 108.678 49.5078C108.736 49.9766 108.805 50.4746 108.883 51.002C108.961 51.5098 109.039 52.0273 109.117 52.5547C109.195 53.082 109.264 53.5605 109.322 53.9902C109.381 54.4004 109.43 54.7422 109.469 55.0156C109.508 55.2891 109.537 55.4355 109.557 55.4551C110.338 55.6309 111.129 55.5918 111.93 55.3379C112.73 55.0645 113.453 54.6445 114.098 54.0781C114.742 53.4922 115.279 52.8184 115.709 52.0566C116.139 51.2949 116.363 50.5137 116.383 49.7129C116.383 48.9902 116.207 48.375 115.855 47.8672C115.523 47.3398 115.094 46.9102 114.566 46.5781C114.039 46.2266 113.443 45.9727 112.779 45.8164C112.135 45.6406 111.49 45.5527 110.846 45.5527C110.533 45.5527 110.23 45.5723 109.938 45.6113C109.664 45.6504 109.42 45.7188 109.205 45.8164C108.99 45.9141 108.814 46.0703 108.678 46.2852C108.561 46.5 108.502 46.7832 108.502 47.1348Z" fill="black"/>
</svg>
